<svg xmlns="http://www.w3.org/2000/svg" xmlns:xlink="http://www.w3.org/1999/xlink" width="300" zoomAndPan="magnify" viewBox="0 0 224.87999 225" height="300" preserveAspectRatio="xMidYMid meet" version="1.0"><defs><clipPath id="db4852faf3"><path d="M 21 43.363281 L 204 43.363281 L 204 181.289062 L 21 181.289062 Z M 21 43.363281 " clip-rule="nonzero"/></clipPath></defs><g clip-path="url(#db4852faf3)"><path fill="#ffffff" d="M 48.550781 136.242188 C 59.660156 161.644531 85.507812 181.257812 113.367188 181.257812 L 123.796875 181.257812 C 156.804688 181.257812 196.613281 152.484375 203.527344 121.105469 C 204.800781 115.320312 200.214844 109.882812 194.273438 109.882812 L 184.3125 109.882812 C 185.542969 107.113281 186.539062 104.25 187.1875 101.292969 C 188.210938 96.644531 184.53125 92.273438 179.742188 92.273438 L 173.871094 92.273438 C 166.125 64.101562 140.261719 43.390625 109.535156 43.390625 C 78.804688 43.390625 52.929688 64.097656 45.183594 92.273438 L 28.722656 92.273438 C 23.933594 92.273438 20.253906 96.644531 21.277344 101.292969 C 24.472656 115.773438 35.082031 128.230469 48.550781 136.242188 Z M 109.539062 53.164062 C 134.75 53.164062 156.175781 69.597656 163.628906 92.277344 L 153.941406 92.277344 C 151.289062 92.277344 149.136719 94.421875 149.136719 97.066406 L 149.136719 97.261719 C 149.136719 99.90625 151.289062 102.046875 153.941406 102.046875 L 176.847656 102.046875 C 173.398438 112.941406 164.242188 122.964844 152.457031 129.261719 C 150.984375 130.042969 149.980469 131.476562 149.839844 133.128906 L 149.824219 133.324219 C 149.503906 137.125 153.539062 139.722656 156.921875 137.933594 C 165.457031 133.410156 173.023438 127.128906 178.578125 119.65625 L 193.800781 119.65625 C 187.636719 145.441406 152.578125 171.488281 123.796875 171.488281 L 113.371094 171.488281 C 98.457031 171.488281 83.125 164.597656 71.308594 152.585938 C 59.132812 140.207031 52.328125 124.21875 52.640625 108.726562 C 53.253906 78.085938 78.777344 53.164062 109.539062 53.164062 Z M 43.285156 102.046875 C 43.03125 104.179688 42.878906 106.339844 42.835938 108.527344 C 42.753906 112.5625 43.097656 116.566406 43.789062 120.511719 C 38.046875 115.128906 33.742188 108.757812 31.621094 102.046875 Z M 43.285156 102.046875 " fill-opacity="1" fill-rule="nonzero"/></g><path fill="#ffffff" d="M 80.332031 97.007812 C 80.332031 97.539062 80.277344 98.0625 80.175781 98.582031 C 80.070312 99.101562 79.917969 99.605469 79.714844 100.097656 C 79.511719 100.585938 79.261719 101.050781 78.964844 101.492188 C 78.667969 101.933594 78.332031 102.339844 77.957031 102.714844 C 77.582031 103.089844 77.171875 103.425781 76.730469 103.71875 C 76.289062 104.015625 75.820312 104.261719 75.328125 104.464844 C 74.839844 104.667969 74.332031 104.820312 73.808594 104.925781 C 73.289062 105.027344 72.761719 105.082031 72.230469 105.082031 C 71.699219 105.082031 71.171875 105.027344 70.648438 104.925781 C 70.128906 104.820312 69.621094 104.667969 69.128906 104.464844 C 68.636719 104.261719 68.171875 104.015625 67.730469 103.71875 C 67.285156 103.425781 66.878906 103.089844 66.5 102.714844 C 66.125 102.339844 65.789062 101.933594 65.492188 101.492188 C 65.199219 101.050781 64.949219 100.585938 64.746094 100.097656 C 64.542969 99.605469 64.386719 99.101562 64.285156 98.582031 C 64.179688 98.0625 64.128906 97.539062 64.128906 97.007812 C 64.128906 96.476562 64.179688 95.953125 64.285156 95.433594 C 64.386719 94.910156 64.542969 94.40625 64.746094 93.917969 C 64.949219 93.425781 65.199219 92.960938 65.492188 92.523438 C 65.789062 92.082031 66.125 91.671875 66.5 91.296875 C 66.878906 90.921875 67.285156 90.589844 67.730469 90.292969 C 68.171875 90 68.636719 89.75 69.128906 89.546875 C 69.621094 89.34375 70.128906 89.191406 70.648438 89.089844 C 71.171875 88.984375 71.699219 88.933594 72.230469 88.933594 C 72.761719 88.933594 73.289062 88.984375 73.808594 89.089844 C 74.332031 89.191406 74.839844 89.34375 75.328125 89.546875 C 75.820312 89.75 76.289062 90 76.730469 90.292969 C 77.171875 90.589844 77.582031 90.921875 77.957031 91.296875 C 78.332031 91.671875 78.667969 92.082031 78.964844 92.523438 C 79.261719 92.960938 79.511719 93.425781 79.714844 93.917969 C 79.917969 94.40625 80.070312 94.910156 80.175781 95.433594 C 80.277344 95.953125 80.332031 96.476562 80.332031 97.007812 Z M 80.332031 97.007812 " fill-opacity="1" fill-rule="nonzero"/><path fill="#ffffff" d="M 117.191406 97.007812 C 117.191406 97.539062 117.140625 98.0625 117.035156 98.582031 C 116.933594 99.101562 116.78125 99.605469 116.574219 100.097656 C 116.371094 100.585938 116.121094 101.050781 115.828125 101.492188 C 115.53125 101.933594 115.195312 102.339844 114.820312 102.714844 C 114.445312 103.089844 114.035156 103.425781 113.59375 103.71875 C 113.148438 104.015625 112.683594 104.261719 112.191406 104.464844 C 111.699219 104.667969 111.195312 104.820312 110.671875 104.925781 C 110.148438 105.027344 109.625 105.082031 109.089844 105.082031 C 108.558594 105.082031 108.03125 105.027344 107.511719 104.925781 C 106.988281 104.820312 106.484375 104.667969 105.992188 104.464844 C 105.5 104.261719 105.03125 104.015625 104.589844 103.71875 C 104.148438 103.425781 103.738281 103.089844 103.363281 102.714844 C 102.988281 102.339844 102.652344 101.933594 102.355469 101.492188 C 102.058594 101.050781 101.8125 100.585938 101.605469 100.097656 C 101.402344 99.605469 101.25 99.101562 101.144531 98.582031 C 101.042969 98.0625 100.992188 97.539062 100.992188 97.007812 C 100.992188 96.476562 101.042969 95.953125 101.144531 95.433594 C 101.25 94.910156 101.402344 94.40625 101.605469 93.917969 C 101.8125 93.425781 102.058594 92.960938 102.355469 92.523438 C 102.652344 92.082031 102.988281 91.671875 103.363281 91.296875 C 103.738281 90.921875 104.148438 90.589844 104.589844 90.292969 C 105.03125 90 105.5 89.75 105.992188 89.546875 C 106.484375 89.34375 106.988281 89.191406 107.511719 89.089844 C 108.03125 88.984375 108.558594 88.933594 109.089844 88.933594 C 109.625 88.933594 110.148438 88.984375 110.671875 89.089844 C 111.195312 89.191406 111.699219 89.34375 112.191406 89.546875 C 112.683594 89.75 113.148438 90 113.59375 90.292969 C 114.035156 90.589844 114.445312 90.921875 114.820312 91.296875 C 115.195312 91.671875 115.53125 92.082031 115.828125 92.523438 C 116.121094 92.960938 116.371094 93.425781 116.574219 93.917969 C 116.78125 94.40625 116.933594 94.910156 117.035156 95.433594 C 117.140625 95.953125 117.191406 96.476562 117.191406 97.007812 Z M 117.191406 97.007812 " fill-opacity="1" fill-rule="nonzero"/></svg>